<?xml version="1.0" encoding="utf-8"?>
<!-- Generator: Adobe Illustrator 26.1.0, SVG Export Plug-In . SVG Version: 6.00 Build 0)  -->
<svg version="1.1" id="Слой_1" xmlns="http://www.w3.org/2000/svg" xmlns:xlink="http://www.w3.org/1999/xlink" x="0px" y="0px"
	 viewBox="0 0 41.1 48" style="enable-background:new 0 0 41.1 48;" xml:space="preserve">
<style type="text/css">
	.st0{fill:none;}
	.st1{fill:#FFFCF4;}
</style>
<path class="st0" d="M-3.4,0h48v48h-48V0z"/>
<path class="st1" d="M27.4,0H13.7v4.6h13.7V0z M18.3,29.7h4.6V16h-4.6V29.7z M36.6,14.6l3.3-3.3c-1-1.2-2.1-2.3-3.2-3.2l-3.3,3.3
	c-3.5-2.8-8-4.5-12.8-4.5C9.2,6.9,0,16.1,0,27.4S9.2,48,20.6,48s20.6-9.2,20.6-20.6C41.1,22.6,39.5,18.1,36.6,14.6z M20.6,43.4
	c-8.8,0-16-7.2-16-16s7.2-16,16-16s16,7.2,16,16S29.4,43.4,20.6,43.4z"/>
</svg>
